<svg width="1009" height="201" viewBox="-20 -20 1049 241" fill="none" xmlns="http://www.w3.org/2000/svg">
  <path
    d="M7.69238 117.074C9.67749 105.66 16.8735 96.2306 28.5361 96.2306C40.4467 96.2306 46.8983 105.908 53.3499 124.518C56.7412 133.782 60.1324 143.046 63.5236 152.31C73.6893 180.08 81.1991 192.012 100.856 192.012C128.722 192.012 154.043 159.647 161.595 119.001C162.93 111.82 164.774 104.236 166.043 96.7268"
    stroke="#FF5733" stroke-width="20" stroke-linecap="round" />
  <path d="M102.233 96.7272C75.6821 127.745 45.161 159.258 11.4141 191.02" stroke="#33A1FF" stroke-width="20"
    stroke-linecap="round" />
  <path
    d="M166.043 96.7268C163.191 113.6 160.565 127.496 158.92 139.903C157.989 148.092 157.544 155.04 157.596 161.987C157.729 179.853 164.764 192.012 182.695 192.012C209.389 192.012 236.181 159.623 243.729 118.999C245.063 111.82 247.012 104.258 248.139 96.7268"
    stroke="#4CAF50" stroke-width="20" stroke-linecap="round" />
  <path d="M248.139 96.7268C243.424 128.24 239.454 159.258 234.491 190.771" stroke="#8E44AD" stroke-width="20"
    stroke-linecap="round" />
  <path
    d="M237.874 168.451C244.705 121.819 265.509 94.7417 290.323 94.7417C307.693 94.7417 316.626 106.652 315.137 123.526C313.896 136.181 309.678 150.821 308.685 163.228C307.445 180.35 316.5 192.012 330.77 192.012C348.722 192.012 359.31 179.814 364.143 166.464"
    stroke="#F39C12" stroke-width="20" stroke-linecap="round" />
  <path
    d="M535.911 110.375C531.266 100.945 520.943 93.9974 505.459 93.9974C476.516 93.9974 462.045 118.315 462.045 143.873C462.045 172.002 482.265 193.005 511.307 193.005C559.762 193.005 592.902 137.207 621.581 98.3798C640.764 72.4091 649.875 49.735 650.372 31.6664C650.621 18.2674 644.169 8.10264 632.01 8.10264C618.611 8.10264 610.174 18.2674 604.963 41.6002C599.256 67.2431 595.037 96.6674 584.367 191.02"
    stroke="#1ABC9C" stroke-width="20" stroke-linecap="round" />
  <path
    d="M585.413 181.799C590.677 135.525 611.663 98.712 638.213 98.712C654.094 98.712 664.187 111.367 661.321 129.481C659.708 140.151 656.794 152.558 655.128 164.717C653.102 180.102 658.89 192.012 676.813 192.012C702.178 192.012 717.375 164.576 725.613 135.695"
    stroke="#E91E63" stroke-width="20" stroke-linecap="round" />
  <path
    d="M803.871 113.494C799.007 102.299 788.666 94.7418 772.207 94.7418C744.912 94.7418 724.398 122.037 723.052 151.317C721.878 178.116 734.244 193.181 751.857 193.005C776.858 192.755 795.234 168.199 803.437 116.242C804.449 109.831 805.498 103.137 806.51 96.7269"
    stroke="#FFC107" stroke-width="20" stroke-linecap="round" />
  <path
    d="M806.511 96.7269C805.486 103.229 804.461 109.732 803.437 116.234C798.955 144.674 796.888 155.894 797.11 163.228C797.628 180.35 803.786 192.012 820.065 192.012C842.564 192.012 860.966 165.221 870.267 138.788C879.653 112.112 891.316 95.4862 915.633 95.4862C935.732 95.4862 951.613 110.375 951.613 138.414C951.613 169.432 931.489 192.757 906.06 193.005C883.681 193.253 868.983 175.139 870.472 147.844C872.209 117.571 890.571 95.4862 914.641 95.4862C928.536 95.4862 940.208 101.663 949.38 108.389C974.247 126.53 993.407 115.32 1000.74 97.3827"
    stroke="#2ECC71" stroke-width="20" stroke-linecap="round" />
  <path d="M763.027 19.8039C768.735 35.1886 780.397 48.8362 792.06 56.0322" stroke="#FF69B4" stroke-width="20"
    stroke-linecap="round" />
</svg>
